<svg width="120" height="140" viewBox="0 0 120 140" fill="none" xmlns="http://www.w3.org/2000/svg">
  <!-- Black collar band -->
  <path d="M10 8 C10 4 14 2 18 2 L102 2 C106 2 110 4 110 8 L110 32 C110 36 106 38 102 38 L62 44 L58 44 L18 38 C14 38 10 36 10 32 Z" fill="#0a0a0a"/>
  <!-- Center notch gap between collar and bands -->
  <path d="M54 38 L60 48 L66 38 Z" fill="#0a0a0a"/>
  <!-- Left hanging band -->
  <rect x="14" y="44" width="38" height="90" rx="3" fill="#0a0a0a"/>
  <!-- Right hanging band -->
  <rect x="68" y="44" width="38" height="90" rx="3" fill="#0a0a0a"/>
  <!-- Subtle inner detail lines on left band -->
  <rect x="19" y="50" width="28" height="78" rx="2" fill="#2a2a2a"/>
  <!-- Subtle inner detail lines on right band -->
  <rect x="73" y="50" width="28" height="78" rx="2" fill="#2a2a2a"/>
</svg>
